<svg xmlns="http://www.w3.org/2000/svg" width="1200" height="790" viewBox="0 0 1200 790">
  <rect width="1200" height="790" fill="#FFFFFF"/>
  <rect x="565" y="34" width="70" height="5" rx="3" fill="#2563EB"/>
  <text x="600" y="92" font-family="Inter,Segoe UI,Arial,sans-serif" font-size="42" font-weight="800" fill="#0F172A" text-anchor="middle"><tspan x="600" dy="0">Workflow Git, merge gates et niveaux de preuve</tspan></text>
  <text x="600" y="132" font-family="Inter,Segoe UI,Arial,sans-serif" font-size="22" font-weight="400" fill="#64748B" text-anchor="middle"><tspan x="600" dy="0">De l’issue au merge, avec des critères clairs et des preuves adaptées.</tspan></text>
  <rect x="25" y="170" width="1150" height="285" rx="18" fill="#EFF6FF" stroke="#2563EB" stroke-width="1.5"/><circle cx="60" cy="205" r="27" fill="#2563EB"/><text x="60" y="213" font-family="Inter,Segoe UI,Arial,sans-serif" font-size="26" font-weight="700" fill="#fff" text-anchor="middle"><tspan x="60" dy="0">1</tspan></text><text x="105" y="213" font-family="Inter,Segoe UI,Arial,sans-serif" font-size="26" font-weight="800" fill="#0F172A" text-anchor="start"><tspan x="105" dy="0">Issue-driven workflow</tspan></text><rect x="42" y="255" width="122" height="128" rx="12" fill="#FFFFFF" stroke="#CBD5E1" stroke-width="1.5"/><circle cx="103" cy="286" r="18" fill="#EFF6FF"/><text x="103" y="293" font-family="Inter,Segoe UI,Arial,sans-serif" font-size="13" font-weight="800" fill="#2563EB" text-anchor="middle"><tspan x="103" dy="0">1</tspan></text><text x="103" y="332" font-family="Inter,Segoe UI,Arial,sans-serif" font-size="14" font-weight="800" fill="#0F172A" text-anchor="middle"><tspan x="103" dy="0">Issue</tspan><tspan x="103" dy="17">auto-porteuse</tspan></text><line x1="164" y1="319" x2="181" y2="319" stroke="#2563EB" stroke-width="3"/><path d="M 171 312 L 181 319 L 171 326" fill="none" stroke="#2563EB" stroke-width="3"/><rect x="183" y="255" width="122" height="128" rx="12" fill="#FFFFFF" stroke="#CBD5E1" stroke-width="1.5"/><circle cx="244" cy="286" r="18" fill="#ECFDF5"/><text x="244" y="293" font-family="Inter,Segoe UI,Arial,sans-serif" font-size="13" font-weight="800" fill="#14B8A6" text-anchor="middle"><tspan x="244" dy="0">2</tspan></text><text x="244" y="332" font-family="Inter,Segoe UI,Arial,sans-serif" font-size="14" font-weight="800" fill="#0F172A" text-anchor="middle"><tspan x="244" dy="0">Branche</tspan></text><line x1="305" y1="319" x2="322" y2="319" stroke="#2563EB" stroke-width="3"/><path d="M 312 312 L 322 319 L 312 326" fill="none" stroke="#2563EB" stroke-width="3"/><rect x="324" y="255" width="122" height="128" rx="12" fill="#FFFFFF" stroke="#CBD5E1" stroke-width="1.5"/><circle cx="385" cy="286" r="18" fill="#EFF6FF"/><text x="385" y="293" font-family="Inter,Segoe UI,Arial,sans-serif" font-size="13" font-weight="800" fill="#2563EB" text-anchor="middle"><tspan x="385" dy="0">3</tspan></text><text x="385" y="332" font-family="Inter,Segoe UI,Arial,sans-serif" font-size="14" font-weight="800" fill="#0F172A" text-anchor="middle"><tspan x="385" dy="0">Implémentation</tspan></text><line x1="446" y1="319" x2="463" y2="319" stroke="#2563EB" stroke-width="3"/><path d="M 453 312 L 463 319 L 453 326" fill="none" stroke="#2563EB" stroke-width="3"/><rect x="465" y="255" width="122" height="128" rx="12" fill="#FFFFFF" stroke="#CBD5E1" stroke-width="1.5"/><circle cx="526" cy="286" r="18" fill="#ECFDF5"/><text x="526" y="293" font-family="Inter,Segoe UI,Arial,sans-serif" font-size="13" font-weight="800" fill="#14B8A6" text-anchor="middle"><tspan x="526" dy="0">4</tspan></text><text x="526" y="332" font-family="Inter,Segoe UI,Arial,sans-serif" font-size="14" font-weight="800" fill="#0F172A" text-anchor="middle"><tspan x="526" dy="0">Tests /</tspan><tspan x="526" dy="17">validation</tspan></text><line x1="587" y1="319" x2="604" y2="319" stroke="#2563EB" stroke-width="3"/><path d="M 594 312 L 604 319 L 594 326" fill="none" stroke="#2563EB" stroke-width="3"/><rect x="606" y="255" width="122" height="128" rx="12" fill="#FFFFFF" stroke="#CBD5E1" stroke-width="1.5"/><circle cx="667" cy="286" r="18" fill="#EFF6FF"/><text x="667" y="293" font-family="Inter,Segoe UI,Arial,sans-serif" font-size="13" font-weight="800" fill="#2563EB" text-anchor="middle"><tspan x="667" dy="0">5</tspan></text><text x="667" y="332" font-family="Inter,Segoe UI,Arial,sans-serif" font-size="14" font-weight="800" fill="#0F172A" text-anchor="middle"><tspan x="667" dy="0">PR</tspan></text><line x1="728" y1="319" x2="745" y2="319" stroke="#2563EB" stroke-width="3"/><path d="M 735 312 L 745 319 L 735 326" fill="none" stroke="#2563EB" stroke-width="3"/><rect x="747" y="255" width="122" height="128" rx="12" fill="#FFFFFF" stroke="#CBD5E1" stroke-width="1.5"/><circle cx="808" cy="286" r="18" fill="#ECFDF5"/><text x="808" y="293" font-family="Inter,Segoe UI,Arial,sans-serif" font-size="13" font-weight="800" fill="#14B8A6" text-anchor="middle"><tspan x="808" dy="0">6</tspan></text><text x="808" y="332" font-family="Inter,Segoe UI,Arial,sans-serif" font-size="14" font-weight="800" fill="#0F172A" text-anchor="middle"><tspan x="808" dy="0">Review</tspan></text><line x1="869" y1="319" x2="886" y2="319" stroke="#2563EB" stroke-width="3"/><path d="M 876 312 L 886 319 L 876 326" fill="none" stroke="#2563EB" stroke-width="3"/><rect x="888" y="255" width="122" height="128" rx="12" fill="#FFFFFF" stroke="#CBD5E1" stroke-width="1.5"/><circle cx="949" cy="286" r="18" fill="#EFF6FF"/><text x="949" y="293" font-family="Inter,Segoe UI,Arial,sans-serif" font-size="13" font-weight="800" fill="#2563EB" text-anchor="middle"><tspan x="949" dy="0">7</tspan></text><text x="949" y="332" font-family="Inter,Segoe UI,Arial,sans-serif" font-size="14" font-weight="800" fill="#0F172A" text-anchor="middle"><tspan x="949" dy="0">Merge</tspan></text><line x1="1010" y1="319" x2="1027" y2="319" stroke="#2563EB" stroke-width="3"/><path d="M 1017 312 L 1027 319 L 1017 326" fill="none" stroke="#2563EB" stroke-width="3"/><rect x="1029" y="255" width="122" height="128" rx="12" fill="#FFFFFF" stroke="#CBD5E1" stroke-width="1.5"/><circle cx="1090" cy="286" r="18" fill="#ECFDF5"/><text x="1090" y="293" font-family="Inter,Segoe UI,Arial,sans-serif" font-size="13" font-weight="800" fill="#14B8A6" text-anchor="middle"><tspan x="1090" dy="0">8</tspan></text><text x="1090" y="332" font-family="Inter,Segoe UI,Arial,sans-serif" font-size="14" font-weight="800" fill="#0F172A" text-anchor="middle"><tspan x="1090" dy="0">Fermeture issue</tspan></text><text x="50" y="425" font-family="Inter,Segoe UI,Arial,sans-serif" font-size="16" font-weight="700" fill="#2563EB" text-anchor="start"><tspan x="50" dy="0">1 issue = 1 tâche distincte • ne pas travailler directement sur main • Project = organisation / statut, pas</tspan><tspan x="50" dy="20">contexte d’exécution</tspan></text><rect x="25" y="485" width="555" height="275" rx="18" fill="#FFFFFF" stroke="#CBD5E1" stroke-width="1.5"/><circle cx="60" cy="520" r="27" fill="#14B8A6"/><text x="60" y="528" font-family="Inter,Segoe UI,Arial,sans-serif" font-size="26" font-weight="700" fill="#fff" text-anchor="middle"><tspan x="60" dy="0">2</tspan></text><text x="105" y="528" font-family="Inter,Segoe UI,Arial,sans-serif" font-size="25" font-weight="800" fill="#0F172A" text-anchor="start"><tspan x="105" dy="0">Gates avant merge</tspan></text><circle cx="50" cy="560" r="8" fill="#14B8A6"/><text x="50" y="564" font-family="Inter,Segoe UI,Arial,sans-serif" font-size="11" font-weight="800" fill="#fff" text-anchor="middle"><tspan x="50" dy="0">✓</tspan></text><text x="68" y="565" font-family="Inter,Segoe UI,Arial,sans-serif" font-size="14" font-weight="400" fill="#0F172A" text-anchor="start"><tspan x="68" dy="0">hors draft</tspan></text><circle cx="50" cy="591" r="8" fill="#14B8A6"/><text x="50" y="595" font-family="Inter,Segoe UI,Arial,sans-serif" font-size="11" font-weight="800" fill="#fff" text-anchor="middle"><tspan x="50" dy="0">✓</tspan></text><text x="68" y="596" font-family="Inter,Segoe UI,Arial,sans-serif" font-size="14" font-weight="400" fill="#0F172A" text-anchor="start"><tspan x="68" dy="0">branche à jour</tspan></text><circle cx="50" cy="622" r="8" fill="#14B8A6"/><text x="50" y="626" font-family="Inter,Segoe UI,Arial,sans-serif" font-size="11" font-weight="800" fill="#fff" text-anchor="middle"><tspan x="50" dy="0">✓</tspan></text><text x="68" y="627" font-family="Inter,Segoe UI,Arial,sans-serif" font-size="14" font-weight="400" fill="#0F172A" text-anchor="start"><tspan x="68" dy="0">build / lint / typecheck</tspan></text><circle cx="50" cy="653" r="8" fill="#14B8A6"/><text x="50" y="657" font-family="Inter,Segoe UI,Arial,sans-serif" font-size="11" font-weight="800" fill="#fff" text-anchor="middle"><tspan x="50" dy="0">✓</tspan></text><text x="68" y="658" font-family="Inter,Segoe UI,Arial,sans-serif" font-size="14" font-weight="400" fill="#0F172A" text-anchor="start"><tspan x="68" dy="0">tests unitaires</tspan></text><circle cx="50" cy="684" r="8" fill="#14B8A6"/><text x="50" y="688" font-family="Inter,Segoe UI,Arial,sans-serif" font-size="11" font-weight="800" fill="#fff" text-anchor="middle"><tspan x="50" dy="0">✓</tspan></text><text x="68" y="689" font-family="Inter,Segoe UI,Arial,sans-serif" font-size="14" font-weight="400" fill="#0F172A" text-anchor="start"><tspan x="68" dy="0">tests d’intégration</tspan></text><circle cx="50" cy="715" r="8" fill="#14B8A6"/><text x="50" y="719" font-family="Inter,Segoe UI,Arial,sans-serif" font-size="11" font-weight="800" fill="#fff" text-anchor="middle"><tspan x="50" dy="0">✓</tspan></text><text x="68" y="720" font-family="Inter,Segoe UI,Arial,sans-serif" font-size="14" font-weight="400" fill="#0F172A" text-anchor="start"><tspan x="68" dy="0">E2E / smoke si transverse</tspan></text><circle cx="310" cy="560" r="8" fill="#14B8A6"/><text x="310" y="564" font-family="Inter,Segoe UI,Arial,sans-serif" font-size="11" font-weight="800" fill="#fff" text-anchor="middle"><tspan x="310" dy="0">✓</tspan></text><text x="328" y="565" font-family="Inter,Segoe UI,Arial,sans-serif" font-size="14" font-weight="400" fill="#0F172A" text-anchor="start"><tspan x="328" dy="0">migrations / compatibilité</tspan></text><circle cx="310" cy="591" r="8" fill="#14B8A6"/><text x="310" y="595" font-family="Inter,Segoe UI,Arial,sans-serif" font-size="11" font-weight="800" fill="#fff" text-anchor="middle"><tspan x="310" dy="0">✓</tspan></text><text x="328" y="596" font-family="Inter,Segoe UI,Arial,sans-serif" font-size="14" font-weight="400" fill="#0F172A" text-anchor="start"><tspan x="328" dy="0">analyses statiques</tspan></text><circle cx="310" cy="622" r="8" fill="#14B8A6"/><text x="310" y="626" font-family="Inter,Segoe UI,Arial,sans-serif" font-size="11" font-weight="800" fill="#fff" text-anchor="middle"><tspan x="310" dy="0">✓</tspan></text><text x="328" y="627" font-family="Inter,Segoe UI,Arial,sans-serif" font-size="14" font-weight="400" fill="#0F172A" text-anchor="start"><tspan x="328" dy="0">sécurité / secrets</tspan></text><circle cx="310" cy="653" r="8" fill="#14B8A6"/><text x="310" y="657" font-family="Inter,Segoe UI,Arial,sans-serif" font-size="11" font-weight="800" fill="#fff" text-anchor="middle"><tspan x="310" dy="0">✓</tspan></text><text x="328" y="658" font-family="Inter,Segoe UI,Arial,sans-serif" font-size="14" font-weight="400" fill="#0F172A" text-anchor="start"><tspan x="328" dy="0">diff relu</tspan></text><circle cx="310" cy="684" r="8" fill="#14B8A6"/><text x="310" y="688" font-family="Inter,Segoe UI,Arial,sans-serif" font-size="11" font-weight="800" fill="#fff" text-anchor="middle"><tspan x="310" dy="0">✓</tspan></text><text x="328" y="689" font-family="Inter,Segoe UI,Arial,sans-serif" font-size="14" font-weight="400" fill="#0F172A" text-anchor="start"><tspan x="328" dy="0">docs / specs à jour</tspan></text><rect x="43" y="720" width="520" height="30" rx="8" fill="#FEF2F2" stroke="none" stroke-width="1.5"/><text x="303" y="741" font-family="Inter,Segoe UI,Arial,sans-serif" font-size="14" font-weight="800" fill="#DC2626" text-anchor="middle"><tspan x="303" dy="0">Un finding sécurité non résolu bloque le merge.</tspan></text><rect x="600" y="485" width="575" height="275" rx="18" fill="#FFFFFF" stroke="#CBD5E1" stroke-width="1.5"/><circle cx="635" cy="520" r="27" fill="#2563EB"/><text x="635" y="528" font-family="Inter,Segoe UI,Arial,sans-serif" font-size="26" font-weight="700" fill="#fff" text-anchor="middle"><tspan x="635" dy="0">3</tspan></text><text x="680" y="528" font-family="Inter,Segoe UI,Arial,sans-serif" font-size="25" font-weight="800" fill="#0F172A" text-anchor="start"><tspan x="680" dy="0">Niveaux de preuve</tspan></text><polygon points="625,706 895,706 883,732 637,732" fill="#EFF6FF" stroke="#2563EB" stroke-width="1"/><text x="760" y="725" font-family="Inter,Segoe UI,Arial,sans-serif" font-size="13" font-weight="700" fill="#0F172A" text-anchor="middle"><tspan x="760" dy="0">1. Revue statique</tspan></text><polygon points="634,676 886,676 874,702 646,702" fill="#EFF6FF" stroke="#2563EB" stroke-width="1"/><text x="760" y="695" font-family="Inter,Segoe UI,Arial,sans-serif" font-size="13" font-weight="700" fill="#0F172A" text-anchor="middle"><tspan x="760" dy="0">2. Validation locale</tspan></text><polygon points="643,646 877,646 865,672 655,672" fill="#EFF6FF" stroke="#2563EB" stroke-width="1"/><text x="760" y="665" font-family="Inter,Segoe UI,Arial,sans-serif" font-size="13" font-weight="700" fill="#0F172A" text-anchor="middle"><tspan x="760" dy="0">3. Plan / dry-run</tspan></text><polygon points="652,616 868,616 856,642 664,642" fill="#EFF6FF" stroke="#2563EB" stroke-width="1"/><text x="760" y="635" font-family="Inter,Segoe UI,Arial,sans-serif" font-size="13" font-weight="700" fill="#0F172A" text-anchor="middle"><tspan x="760" dy="0">4. Intégration</tspan></text><polygon points="661,586 859,586 847,612 673,612" fill="#ECFDF5" stroke="#14B8A6" stroke-width="1"/><text x="760" y="605" font-family="Inter,Segoe UI,Arial,sans-serif" font-size="13" font-weight="700" fill="#0F172A" text-anchor="middle"><tspan x="760" dy="0">5. Déploiement réel</tspan></text><polygon points="670,556 850,556 838,582 682,582" fill="#ECFDF5" stroke="#14B8A6" stroke-width="1"/><text x="760" y="575" font-family="Inter,Segoe UI,Arial,sans-serif" font-size="13" font-weight="700" fill="#0F172A" text-anchor="middle"><tspan x="760" dy="0">6. Preuve opérationnelle</tspan></text><text x="910" y="725" font-family="Inter,Segoe UI,Arial,sans-serif" font-size="14" font-weight="800" fill="#2563EB" text-anchor="middle"><tspan x="910" dy="0">Une CI verte ≠ preuve de déploiement réussi.</tspan></text></svg>